<?xml version="1.0" encoding="utf-8"?>
<!-- Generator: Adobe Illustrator 26.3.1, SVG Export Plug-In . SVG Version: 6.00 Build 0)  -->
<svg version="1.1" id="Warstwa_1" xmlns="http://www.w3.org/2000/svg" xmlns:xlink="http://www.w3.org/1999/xlink" x="0px" y="0px"
	 viewBox="0 0 478.8 432.8" style="enable-background:new 0 0 478.8 432.8;" xml:space="preserve">
<style type="text/css">
	.st0{opacity:0.2;fill:none;stroke:#AFDFFF;stroke-width:20.07;stroke-miterlimit:10;enable-background:new    ;}
	.st1{opacity:0.65;fill:none;stroke:#698BD7;stroke-width:16.99;stroke-miterlimit:10;enable-background:new    ;}
	.st2{fill:#1D1D1B;stroke:#1D1D1B;stroke-width:6.8;stroke-miterlimit:10;}
	.st3{fill:#97B1E5;stroke:#1D1D1B;stroke-width:6.8;stroke-miterlimit:10;}
	.st4{fill:url(#SVGID_1_);stroke:#1D1D1B;stroke-width:6.8;stroke-miterlimit:10;}
	.st5{fill:#EFF9FF;stroke:#1D1D1B;stroke-width:6.8;stroke-miterlimit:10;}
	.st6{fill:#1D1D1B;}
</style>
<g>
	<path class="st0" d="M468.8,211.2c-3.9-42.2-105.2-52.6-227.6-41.3C118.8,181.1,6.3,234.6,10.1,276.8"/>
	<path class="st1" d="M457.8,203.6c-8-40.6-102.5-47.8-228.8-37C76.3,196.4,31.1,252.4,38.2,288.5"/>
</g>
<g>
	<path id="ksztat" class="st2" d="M351,10.5c-85.3-33.2-123.4,61-123.4,61L116.7,337.6c0,0,23.2,24.7,82.3,48.9
		c59.3,23.7,93.2,22.2,93.2,22.2l105.1-268.5C397.3,140.2,435.4,45.8,351,10.5z"/>
	<path id="silnik_lewy" class="st3" d="M133.3,379.7c-9.2-5.7-15.4-11.3-17.4-13.2c-0.4-0.4-0.4-1-0.1-1.4l14.9-16.5l32.5,21
		l-8.3,20.5c-0.2,0.5-0.8,0.8-1.3,0.5C150.8,389.3,142,385.1,133.3,379.7z"/>
	<path id="silnik_prawy" class="st3" d="M249.8,426.8c10.6,2.3,19,2.6,21.7,2.6c0.5,0,0.9-0.4,1-0.9l2.3-21.7l-39.5-8.1l-8.3,20.5
		c-0.2,0.5,0.1,1.1,0.6,1.3C230.6,421.5,239.9,424.6,249.8,426.8z"/>
	<path class="st2" d="M176.5,193.7c0,0-36.2,35.8-51.4,47.6c-25,19.4-46,37.7-51.1,42.1c-0.5,0.5-0.4,1.3,0.2,1.7l53.5,25.7
		L176.5,193.7L176.5,193.7z"/>
	<path class="st2" d="M349.2,263.5c0,0,0.7,50.7,3.2,69.6c4.1,31.2,6.3,58.9,6.8,65.5c0.1,0.7-0.6,1.2-1.3,1l-55.1-18.2L349.2,263.5
		L349.2,263.5z"/>
	
		<linearGradient id="SVGID_1_" gradientUnits="userSpaceOnUse" x1="104.2016" y1="291.1855" x2="423.3316" y2="199.6755" gradientTransform="matrix(1 0 0 -1 0 434)">
		<stop  offset="0" style="stop-color:#2379C8"/>
		<stop  offset="6.000000e-02" style="stop-color:#2471BE"/>
		<stop  offset="0.33" style="stop-color:#27569B"/>
		<stop  offset="0.58" style="stop-color:#2A4382"/>
		<stop  offset="0.81" style="stop-color:#2C3773"/>
		<stop  offset="1" style="stop-color:#2D336E"/>
	</linearGradient>
	<path class="st4" d="M297.6,394.9c-0.1,0.3-0.4,0.4-0.6,0.4c-4.5,0-39.9-1-92.5-22.2c-52.6-21.3-78.7-45.2-82-48.3
		c-0.2-0.2-0.3-0.5-0.2-0.8L226.8,73.4c0.2-0.4,0.8-0.6,1.2-0.2c8.3,7.2,32.2,25.5,79.4,45.3c47.7,18.6,77.6,22,88.6,22.6
		c0.5,0,0.9,0.5,0.7,1L297.6,394.9L297.6,394.9z M176.5,193.7c0,0-36.3,35.8-51.2,47.7c-28.3,22.5-45.7,38.2-45.7,38.2l50.5,24.4
		L176.5,193.7L176.5,193.7z M305.5,374.8l53.3,17.6c0,0-1.6-23.4-6.4-59.2c-2.5-18.9-3.2-69.6-3.2-69.6L305.5,374.8z M401,128.4
		c7-26.4,16-90.3-50.1-118c-66.7-26-104.6,26.1-117.9,50c0,0,20,21.7,79.2,45.8C371.6,130,401,128.4,401,128.4z"/>
	<g id="okno">
		<circle class="st3" cx="264.4" cy="224.9" r="66.1"/>
		<circle class="st5" cx="264.4" cy="224.9" r="51.3"/>
		<g id="_rubki">
			<circle class="st6" cx="208.5" cy="242.7" r="2.6"/>
			<circle class="st6" cx="219.5" cy="187.1" r="2.6"/>
			<circle class="st6" cx="260.6" cy="166.3" r="2.5"/>
			<circle class="st6" cx="292.2" cy="276.5" r="2.5"/>
			<circle class="st6" cx="322.9" cy="228.9" r="2.5"/>
			<circle class="st6" cx="307.7" cy="185.4" r="2.5"/>
			<circle class="st6" cx="242.3" cy="279.5" r="2.5"/>
		</g>
	</g>
	<g>
		<circle class="st6" cx="258.5" cy="57" r="6.4"/>
		<circle class="st6" cx="285.6" cy="73.8" r="6.4"/>
		<circle class="st6" cx="318.8" cy="90.2" r="6.4"/>
		<circle class="st6" cx="354" cy="101.5" r="6.4"/>
		<circle class="st6" cx="385.2" cy="108.2" r="6.4"/>
	</g>
</g>
<g>
	<path class="st0" d="M10,276.8c3.9,42.2,118.2,64.4,249.6,47c121.8-16.1,212.9-70.4,209-112.6"/>
	<path class="st1" d="M38.1,288.5c8.2,41.5,105.4,54.3,220.5,28.2c130.9-24.2,207.2-71.7,199-113.1"/>
</g>
</svg>
